HIERARCHY
ROOT Hips
{
  OFFSET 5.84602e-005 68.8428 3.50346
  CHANNELS 6 Xposition Yposition Zposition Zrotation Xrotation Yrotation
  JOINT Spine
  {
    OFFSET 0 8.597 -4.6522
    CHANNELS 3 Zrotation Xrotation Yrotation
    JOINT Spine1
    {
      OFFSET 0 7.8454 0.4098
      CHANNELS 3 Zrotation Xrotation Yrotation
      JOINT Spine2
      {
        OFFSET 0 9.7078 -2.1609
        CHANNELS 3 Zrotation Xrotation Yrotation
        JOINT Neck
        {
          OFFSET 0 21.8761 -0.4549
          CHANNELS 3 Zrotation Xrotation Yrotation
          JOINT Head
          {
            OFFSET 0 12.3537 3.3602
            CHANNELS 3 Zrotation Xrotation Yrotation
            End Site
            {
              OFFSET 0.0001 18.9506 0.5657
            }
          }
        }
        JOINT LeftShoulder
        {
          OFFSET 2.2086 21.1115 7.2329
          CHANNELS 3 Zrotation Xrotation Yrotation
          JOINT LeftArm
          {
            OFFSET 13.1193 3.0282 -4.8998
            CHANNELS 3 Zrotation Xrotation Yrotation
            JOINT LeftForeArm
            {
              OFFSET 27.4081 -0.0973053 -0.2375
              CHANNELS 3 Zrotation Xrotation Yrotation
              JOINT LeftHand
              {
                OFFSET 22.8641 0.0662994 -0.1369
                CHANNELS 3 Zrotation Xrotation Yrotation
                JOINT LeftHandIndex1
                {
                  OFFSET 8.8614 0.775009 2.4612
                  CHANNELS 3 Zrotation Xrotation Yrotation
                  JOINT LeftHandIndex2
                  {
                    OFFSET 3.3146 -0.808304 0.5841
                    CHANNELS 3 Zrotation Xrotation Yrotation
                    JOINT LeftHandIndex3
                    {
                      OFFSET 2.2628 -0.552002 0.3989
                      CHANNELS 3 Zrotation Xrotation Yrotation
                      End Site
                      {
                        OFFSET 1.6102 -0.4807 0.2612
                      }
                    }
                  }
                }
                JOINT LeftHandMiddle1
                {
                  OFFSET 8.9937 0.895004 0.2143
                  CHANNELS 3 Zrotation Xrotation Yrotation
                  JOINT LeftHandMiddle2
                  {
                    OFFSET 4.0984 0.0113983 -0.0242
                    CHANNELS 3 Zrotation Xrotation Yrotation
                    JOINT LeftHandMiddle3
                    {
                      OFFSET 2.2716 0.00689697 -0.0138001
                      CHANNELS 3 Zrotation Xrotation Yrotation
                      End Site
                      {
                        OFFSET 2.0404 -0.1441 0.0027
                      }
                    }
                  }
                }
                JOINT LeftHandRing1
                {
                  OFFSET 8.5234 0.597198 -2.0164
                  CHANNELS 3 Zrotation Xrotation Yrotation
                  JOINT LeftHandRing2
                  {
                    OFFSET 3.7188 -0.188293 -0.2328
                    CHANNELS 3 Zrotation Xrotation Yrotation
                    JOINT LeftHandRing3
                    {
                      OFFSET 2.1191 -0.106598 -0.1332
                      CHANNELS 3 Zrotation Xrotation Yrotation
                      End Site
                      {
                        OFFSET 1.8737 -0.2304 -0.0886
                      }
                    }
                  }
                }
                JOINT LeftHandPinky1
                {
                  OFFSET 7.9094 -0.601089 -3.4825
                  CHANNELS 3 Zrotation Xrotation Yrotation
                  JOINT LeftHandPinky2
                  {
                    OFFSET 2.2874 -0.477005 -0.6314
                    CHANNELS 3 Zrotation Xrotation Yrotation
                    JOINT LeftHandPinky3
                    {
                      OFFSET 1.6774 -0.349396 -0.4633
                      CHANNELS 3 Zrotation Xrotation Yrotation
                      End Site
                      {
                        OFFSET 1.4888 -0.4091 -0.3416
                      }
                    }
                  }
                }
                JOINT LeftHandThumb1
                {
                  OFFSET 1.833 -1.3875 1.3896
                  CHANNELS 3 Zrotation Xrotation Yrotation
                  JOINT LeftHandThumb2
                  {
                    OFFSET 3.4129 -1.121 2.5732
                    CHANNELS 3 Zrotation Xrotation Yrotation
                    JOINT LeftHandThumb3
                    {
                      OFFSET 2.2474 -0.804199 1.6192
                      CHANNELS 3 Zrotation Xrotation Yrotation
                      End Site
                      {
                        OFFSET 1.6527 -0.5689 1.1317
                      }
                    }
                  }
                }
              }
            }
          }
        }
        JOINT RightShoulder
        {
          OFFSET -2.2086 21.1115 7.2329
          CHANNELS 3 Zrotation Xrotation Yrotation
          JOINT RightArm
          {
            OFFSET -13.1216 3.0287 -4.9007
            CHANNELS 3 Zrotation Xrotation Yrotation
            JOINT RightForeArm
            {
              OFFSET -27.4081 -0.0973053 -0.2375
              CHANNELS 3 Zrotation Xrotation Yrotation
              JOINT RightHand
              {
                OFFSET -22.8641 0.0664063 -0.1369
                CHANNELS 3 Zrotation Xrotation Yrotation
                JOINT RightHandIndex1
                {
                  OFFSET -8.8614 0.774994 2.4612
                  CHANNELS 3 Zrotation Xrotation Yrotation
                  JOINT RightHandIndex2
                  {
                    OFFSET -3.3146 -0.808304 0.5841
                    CHANNELS 3 Zrotation Xrotation Yrotation
                    JOINT RightHandIndex3
                    {
                      OFFSET -2.2628 -0.552002 0.3989
                      CHANNELS 3 Zrotation Xrotation Yrotation
                      End Site
                      {
                        OFFSET -1.6102 -0.4807 0.2612
                      }
                    }
                  }
                }
                JOINT RightHandMiddle1
                {
                  OFFSET -8.9937 0.894989 0.2143
                  CHANNELS 3 Zrotation Xrotation Yrotation
                  JOINT RightHandMiddle2
                  {
                    OFFSET -4.0984 0.0113983 -0.0242
                    CHANNELS 3 Zrotation Xrotation Yrotation
                    JOINT RightHandMiddle3
                    {
                      OFFSET -2.2716 0.00691223 -0.0138001
                      CHANNELS 3 Zrotation Xrotation Yrotation
                      End Site
                      {
                        OFFSET -2.0404 -0.1441 0.0027
                      }
                    }
                  }
                }
                JOINT RightHandRing1
                {
                  OFFSET -8.5234 0.597198 -2.0164
                  CHANNELS 3 Zrotation Xrotation Yrotation
                  JOINT RightHandRing2
                  {
                    OFFSET -3.7188 -0.188309 -0.2328
                    CHANNELS 3 Zrotation Xrotation Yrotation
                    JOINT RightHandRing3
                    {
                      OFFSET -2.1191 -0.106598 -0.1332
                      CHANNELS 3 Zrotation Xrotation Yrotation
                      End Site
                      {
                        OFFSET -1.8737 -0.2304 -0.0886
                      }
                    }
                  }
                }
                JOINT RightHandPinky1
                {
                  OFFSET -7.9094 -0.601105 -3.4825
                  CHANNELS 3 Zrotation Xrotation Yrotation
                  JOINT RightHandPinky2
                  {
                    OFFSET -2.2874 -0.477005 -0.6314
                    CHANNELS 3 Zrotation Xrotation Yrotation
                    JOINT RightHandPinky3
                    {
                      OFFSET -1.6774 -0.349396 -0.4633
                      CHANNELS 3 Zrotation Xrotation Yrotation
                      End Site
                      {
                        OFFSET -1.4888 -0.4091 -0.3416
                      }
                    }
                  }
                }
                JOINT RightHandThumb1
                {
                  OFFSET -1.833 -1.38751 1.3896
                  CHANNELS 3 Zrotation Xrotation Yrotation
                  JOINT RightHandThumb2
                  {
                    OFFSET -3.41299 -1.12099 2.5732
                    CHANNELS 3 Zrotation Xrotation Yrotation
                    JOINT RightHandThumb3
                    {
                      OFFSET -2.24741 -0.804108 1.6192
                      CHANNELS 3 Zrotation Xrotation Yrotation
                      End Site
                      {
                        OFFSET -1.6527 -0.5689 1.1317
                      }
                    }
                  }
                }
              }
            }
          }
        }
      }
    }
  }
  JOINT RightUpLeg
  {
    OFFSET -9.1966 3.8861 -0.7581
    CHANNELS 3 Zrotation Xrotation Yrotation
    JOINT RightLeg
    {
      OFFSET -0.7359 -41.0265 0
      CHANNELS 3 Zrotation Xrotation Yrotation
      JOINT RightFoot
      {
        OFFSET 0 -40.2855 0
        CHANNELS 3 Zrotation Xrotation Yrotation
        JOINT RightToeBase
        {
          OFFSET 0 -5.6122 11.7359
          CHANNELS 3 Zrotation Xrotation Yrotation
          End Site
          {
            OFFSET 0 0 7.8731
          }
        }
      }
    }
  }
  JOINT LeftUpLeg
  {
    OFFSET 9.1965 3.8864 -0.7581
    CHANNELS 3 Zrotation Xrotation Yrotation
    JOINT LeftLeg
    {
      OFFSET 0.7359 -41.0268 0
      CHANNELS 3 Zrotation Xrotation Yrotation
      JOINT LeftFoot
      {
        OFFSET 0 -40.2855 0
        CHANNELS 3 Zrotation Xrotation Yrotation
        JOINT LeftToeBase
        {
          OFFSET 0 -5.6122 11.7359
          CHANNELS 3 Zrotation Xrotation Yrotation
          End Site
          {
            OFFSET 0 0 7.8731
          }
        }
      }
    }
  }
}
MOTION
Frames:	4
Frame Time:	0.0333333
39.7391 30.3719 39.582 0 67.595 -0 -0.403929 8.36911 -0.0496903 -0.813688 16.7384 -0.0396321 -0.813689 16.7384 -0.039632 1.06196e-006 0.614943 5.20837e-007 -4.93612 -7.78926 -0.888693 -16.6287 2.40065 8.04944 35.6242 -28.172 -69.6061 3.76073 -10.3648 -14.2522 57.8933 0.588996 -0.992264 9.54166e-015 -7.95139e-016 3.18055e-015 3.18055e-015 3.97569e-016 3.18055e-015 3.18055e-015 1.98785e-015 1.59028e-015 9.54166e-015 -7.95139e-016 3.18055e-015 -0.0146631 -8.88553e-005 3.32287e-006 6.36111e-015 3.57812e-015 1.59028e-015 9.54166e-015 -7.95139e-016 3.18055e-015 -0.0187496 -0.00117688 6.3866e-005 5.41033e-007 5.94589e-007 -6.62943e-007 9.54166e-015 -7.95139e-016 3.18055e-015 -0.0123344 -0.00326555 0.000680737 3.18055e-015 -1.19271e-015 1.59028e-015 9.54166e-015 -7.95139e-016 3.18055e-015 3.18055e-015 3.97569e-016 3.18055e-015 3.18055e-015 1.98785e-015 1.59028e-015 16.1569 2.52238 -7.31082 -35.6318 -28.1686 69.5868 -3.76457 -10.3651 14.2483 -57.9705 0.433211 1.04528 -0 -2.38542e-015 -0 -0 -2.38542e-015 -0 -0 -2.38542e-015 -0 -0 -2.38542e-015 -0 0.0149744 -9.00053e-005 4.29243e-006 3.18055e-015 0 3.18055e-015 -0 -2.38542e-015 -0 0.0189772 -0.00119043 -6.6151e-005 -0 -2.38542e-015 -0 -0 -2.38542e-015 -0 0.0122068 -0.00323523 -0.00067104 -3.18055e-015 0 -0 -0 -2.38542e-015 -0 -0 -2.38542e-015 -0 -0 -2.38542e-015 -0 -19.2318 -70.919 -24.6694 -165.246 79.3136 164.629 -11.6981 48.3256 3.43859 -2.03183e-007 -1.012e-008 6.45401e-008 19.1094 -70.942 24.4439 165.768 79.322 -165.117 11.6808 48.3136 -3.4602 2.16363e-007 3.25047e-006 9.19492e-007 
39.7391 30.3211 39.666 0 67.2951 -0 -0.404683 8.57362 -0.0468448 -0.816151 17.1474 -0.032183 -0.81615 17.1474 -0.0321834 7.53902e-008 2.17224 4.11649e-008 -4.86543 -6.46336 -0.763817 -16.3875 1.88651 7.70535 35.6242 -28.172 -69.606 3.76073 -10.3648 -14.2522 58.0684 0.538526 -0.910393 -5.49474e-007 -5.75259e-007 6.78052e-007 5.49474e-007 5.75259e-007 -6.78052e-007 -5.49474e-007 -5.75259e-007 6.78052e-007 -5.49474e-007 -5.75259e-007 6.78052e-007 -0.0146182 -8.53775e-005 -1.04039e-005 3.18055e-015 0 1.59028e-015 -5.49474e-007 -5.75259e-007 6.78052e-007 -0.0187922 -0.00117909 6.59314e-005 -3.18055e-015 -3.97569e-016 3.18055e-015 -5.49474e-007 -5.75259e-007 6.78052e-007 -0.0122229 -0.00323304 0.000672495 1.10348e-032 3.97569e-016 -1.59028e-015 -5.49474e-007 -5.75259e-007 6.78052e-007 5.49474e-007 5.75259e-007 -6.78052e-007 -5.49474e-007 -5.75259e-007 6.78052e-007 15.9577 1.99575 -7.03054 -35.6318 -28.1686 69.5868 -3.76459 -10.3651 14.2483 -58.1396 0.395672 0.958733 6.43507e-007 -7.56894e-008 -5.43305e-006 -2.35424e-006 2.78197e-007 -1.1025e-007 6.43507e-007 -7.56893e-008 -5.43304e-006 6.43507e-007 -7.56894e-008 -5.43305e-006 0.0149797 -8.99862e-005 3.91806e-007 6.42924e-007 -7.63961e-008 -5.43304e-006 6.43507e-007 -7.56894e-008 -5.43305e-006 0.018981 -0.00119015 -5.44512e-005 1.19108e-006 -3.07349e-008 -8.5826e-006 6.43507e-007 -7.56894e-008 -5.43305e-006 0.0122508 -0.00324445 -0.000677709 6.4288e-007 -7.6141e-008 -5.43303e-006 6.43507e-007 -7.56894e-008 -5.43305e-006 -2.35424e-006 2.78197e-007 -1.1025e-007 6.43507e-007 -7.56893e-008 -5.43304e-006 -18.8706 -70.5181 -24.2992 -165.248 79.312 164.632 -11.6981 48.326 3.43869 -1.13983e-007 3.25649e-006 -9.5225e-007 18.7486 -70.5383 24.0749 165.768 79.3222 -165.117 11.6808 48.314 -3.46029 1.01627e-007 -5.03134e-009 -3.21635e-008 
39.7391 30.2705 39.7501 0 66.9952 -0 -0.405422 8.77801 -0.0439879 -0.818629 17.5561 -0.024691 -0.818629 17.5561 -0.0246908 7.33379e-007 3.72771 -6.92434e-007 -4.79786 -5.13839 -0.640976 -16.1495 1.37097 7.36354 35.6242 -28.172 -69.6061 3.76075 -10.3648 -14.2522 58.2436 0.488283 -0.828368 -6.36111e-015 3.97569e-016 -0 -6.62086e-032 1.19271e-015 3.18055e-015 6.36111e-015 7.95139e-016 1.59028e-015 -6.36111e-015 3.97569e-016 -0 -0.0146013 -8.78104e-005 -1.09839e-008 3.18055e-015 1.19271e-015 -1.59028e-015 -6.36111e-015 3.97569e-016 -0 -0.0187777 -0.00117676 6.18001e-005 -9.54166e-015 3.57812e-015 1.59028e-015 -6.36111e-015 3.97569e-016 -0 -0.0121884 -0.00322667 0.000670758 9.54166e-015 -7.95139e-016 -0 -6.36111e-015 3.97569e-016 -0 -6.62086e-032 1.19271e-015 3.18055e-015 6.36111e-015 7.95139e-016 1.59028e-015 15.7611 1.46818 -6.75219 -35.6318 -28.1686 69.5868 -3.76459 -10.3651 14.2483 -58.3088 0.358408 0.872108 6.36111e-015 4.77083e-015 -3.18055e-015 -3.18055e-015 3.18055e-015 1.59028e-015 3.18055e-015 3.18055e-015 -1.59028e-015 6.36111e-015 4.77083e-015 -3.18055e-015 0.014999 -9.19022e-005 3.47014e-006 3.18055e-015 7.15625e-015 -3.18055e-015 6.36111e-015 4.77083e-015 -3.18055e-015 0.0189867 -0.00118955 -5.61087e-005 -6.36111e-015 0 3.18055e-015 6.36111e-015 4.77083e-015 -3.18055e-015 0.0122824 -0.00325087 -0.000669242 1.36989e-006 9.93334e-007 -1.32246e-006 6.36111e-015 4.77083e-015 -3.18055e-015 -3.18055e-015 3.18055e-015 1.59028e-015 3.18055e-015 3.18055e-015 -1.59028e-015 -18.5103 -70.1126 -23.9308 -165.244 79.3157 164.626 -11.6982 48.3264 3.43876 -8.61003e-008 3.25784e-006 -5.13728e-007 18.4141 -70.1371 23.7316 165.771 79.3181 -165.123 11.6808 48.3144 -3.46038 2.03323e-007 -1.00394e-008 -6.41099e-008 
39.7391 30.22 39.8344 0 66.6952 -0 -0.406146 8.98215 -0.04112 -0.821122 17.9643 -0.0171567 -0.821123 17.9644 -0.0171566 9.85864e-008 5.28086 -6.01567e-007 -4.73332 -3.81471 -0.520055 -15.9146 0.854169 7.02402 35.6242 -28.172 -69.6061 3.76077 -10.3648 -14.2522 58.4189 0.438305 -0.746187 -1.90833e-014 1.03368e-014 -4.77083e-015 2.19941e-008 -1.04478e-007 -8.40983e-007 -3.18055e-015 -1.59028e-015 -3.18055e-015 -1.90833e-014 1.03368e-014 -4.77083e-015 -0.0146282 -8.72432e-005 -1.16956e-005 -4.9971e-007 -8.48923e-007 -1.81566e-006 -1.90833e-014 1.03368e-014 -4.77083e-015 -0.018766 -0.00117736 5.57753e-005 -5.6157e-007 -5.3572e-007 7.07313e-007 -1.90833e-014 1.03368e-014 -4.77083e-015 -0.0123901 -0.00328065 0.000678219 3.18055e-015 0 3.18055e-015 -1.90833e-014 1.03368e-014 -4.77083e-015 2.19941e-008 -1.04478e-007 -8.40983e-007 -3.18055e-015 -1.59028e-015 -3.18055e-015 15.5671 0.939773 -6.47577 -35.6318 -28.1686 69.5868 -3.76459 -10.3651 14.2484 -58.478 0.321412 0.785358 -3.18055e-015 0 -4.77083e-015 -3.18055e-015 1.59028e-015 -1.59028e-015 -6.36111e-015 7.95139e-016 -4.77083e-015 -3.18055e-015 0 -4.77083e-015 0.0149497 -9.08324e-005 5.03276e-006 6.62086e-032 -2.38542e-015 1.59028e-015 -3.18055e-015 0 -4.77083e-015 0.0190295 -0.00119422 -6.30524e-005 -0 -2.38542e-015 -0 -3.18055e-015 0 -4.77083e-015 0.0122852 -0.00325195 -0.00067175 3.18055e-015 2.38542e-015 -1.59028e-015 -3.18055e-015 0 -4.77083e-015 -3.18055e-015 1.59028e-015 -1.59028e-015 -6.36111e-015 7.95139e-016 -4.77083e-015 -18.1738 -69.709 -23.5854 -165.244 79.3156 164.626 -11.6982 48.3267 3.43885 -3.64231e-007 3.24418e-006 2.06964e-008 18.0805 -69.7316 23.39 165.771 79.3188 -165.122 11.6809 48.3148 -3.46047 1.01696e-007 -5.00804e-009 -3.19464e-008 
